<svg width="985" height="1101" viewBox="0 0 985 1101" fill="none" xmlns="http://www.w3.org/2000/svg">
<path d="M763 11.6763C715.8 3.6763 584 34.1763 548.5 66.6763C585 69.1763 562.5 68.1763 598 85.6763C633.5 103.176 624.5 116.676 658.5 126.676C692.5 136.676 757 77.1763 781 81.6763C805 86.1763 795.928 132.826 820 162.676C857.5 209.176 994.64 269.327 973 162.676C966 128.176 822 21.6763 763 11.6763Z" fill="#B0C8FF"/>
<mask id="mask0_27_103" style="mask-type:alpha" maskUnits="userSpaceOnUse" x="0" y="66" width="808" height="1035">
<path d="M35.0001 696.746L35 115.176C35 102.176 109 213.676 180.5 196.176C252 178.676 261.5 114.746 316 114.746C370.5 114.746 379 169.176 438.5 169.176C498 169.176 487.5 101.676 550 101.676C612.5 101.676 605 156.176 668.5 156.176C732 156.176 773 98.1763 773 118.676L773 696.746C773 906.246 578.5 1065.75 404 1065.75C229.5 1065.75 35.0001 906.246 35.0001 696.746Z" fill="#D9D9D9" stroke="black" stroke-width="70" stroke-linecap="round"/>
</mask>
<g mask="url(#mask0_27_103)">
<path d="M-2203.49 -526.757C-2082.21 -515.843 -1723.62 -468.672 -1475.84 -461.277C-1228.05 -453.882 -969.782 -475.351 -716.756 -482.387C-463.73 -489.424 -229.38 -489.454 42.3233 -503.498C314.026 -517.542 655.197 -545.184 913.462 -566.653C1171.73 -588.121 1478.84 -621.368 1591.91 -632.311L2273.05 1183.13L-1088.72 2444.44L-2203.49 -526.757Z" fill="url(#paint0_linear_27_103)"/>
<path d="M-2234.26 -608.767C-2142.01 -618.439 -1897.39 -647.873 -1680.78 -666.8C-1464.17 -685.728 -1145.98 -717.835 -934.614 -722.33C-723.245 -726.826 -605.258 -696.284 -412.566 -693.773C-219.874 -691.261 -8.50464 -695.756 221.541 -707.259C451.586 -718.761 742.899 -765.718 967.706 -762.788C1192.51 -759.859 1469.94 -701.868 1570.38 -689.683L2273.05 1183.14L-1088.72 2444.44L-2234.26 -608.767Z" fill="#5E8EFF"/>
<path d="M-2111.27 -340.971C-1991.89 -335.109 -1593.44 -295.252 -1394.99 -305.803C-1196.55 -316.354 -1105.61 -386.302 -920.605 -404.278C-735.599 -422.253 -523.717 -425.38 -284.958 -413.657C-46.1982 -401.935 300.068 -330.816 511.951 -333.943C723.833 -337.069 787.893 -421.866 986.337 -432.417C1184.78 -442.968 1583.24 -403.111 1702.62 -397.249L2273.05 1123.13L-1088.72 2384.44L-2111.27 -340.971Z" fill="#4C81FF"/>
<path d="M-2142.04 -272.981C-2049.28 -281.285 -1784.44 -313.62 -1585.48 -322.802C-1386.52 -331.985 -1160.69 -326.318 -948.293 -328.076C-735.897 -329.834 -550.378 -346.441 -311.105 -333.349C-71.8326 -320.258 248.071 -262.62 487.344 -249.528C726.616 -236.437 925.574 -245.619 1124.53 -254.802C1323.49 -263.984 1588.33 -296.319 1681.09 -304.623L2273.05 1273.13L-1088.72 2534.44L-2142.04 -272.981Z" fill="#427AFF"/>
<path d="M-2095.93 -80.0884C-2009.92 -65.8233 -1767.61 20.2674 -1579.88 5.50207C-1392.15 -9.26325 -1152.03 -168.347 -969.539 -168.68C-787.045 -169.014 -675.608 -18.0218 -484.914 3.50105C-294.22 25.0239 -18.3433 -10.3459 174.627 -39.543C367.597 -68.7402 490.413 -171.348 672.907 -171.682C855.401 -172.015 1092.33 -55.6423 1269.59 -41.544C1446.85 -27.4457 1658.63 -79.5006 1736.44 -87.0919L2273.05 1343.14L-1088.72 2604.44L-2095.93 -80.0884Z" fill="#3B73F5"/>
<path d="M-2049.82 112.805C-1963.59 127.656 -1710.14 186.643 -1532.45 201.915C-1354.75 217.186 -1185.26 210.602 -983.646 204.434C-782.035 198.266 -497.519 185.926 -322.785 164.909C-148.051 143.893 -109.977 99.3506 64.7566 78.334C239.49 57.3173 524.007 44.977 725.618 38.8095C927.229 32.6419 1096.72 26.0572 1274.42 41.3287C1452.12 56.6003 1705.56 115.587 1791.79 130.439L2273.05 1413.14L-1088.72 2674.44L-2049.82 112.805Z" fill="#3668DD"/>
<path d="M-1923 220.485C-1789.4 207.462 -1372.89 125.098 -1121.4 142.348C-869.914 159.598 -660.332 292.303 -414.085 323.984C-167.837 355.666 88.8873 358.484 356.087 332.439C623.288 306.393 927.154 179.325 1189.12 167.711C1451.08 156.098 1804.74 246.916 1927.86 262.757L2276.89 1193.02L-1084.88 2454.33L-1923 220.485Z" fill="#2958C7"/>
<path d="M-1958 351.485C-1891.02 345.441 -1722.21 326.9 -1556.15 315.22C-1390.09 303.54 -1141.12 285.67 -961.627 281.406C-782.129 277.142 -639.985 286.892 -479.164 289.635C-318.343 292.378 -157.522 295.121 3.29868 297.865C164.12 300.608 316.747 281.512 485.761 306.094C654.776 330.676 867.048 413.767 1017.39 445.356C1167.72 476.945 1240.4 500.301 1387.79 495.629C1535.18 490.956 1816.05 430.372 1901.7 417.32L2271.95 1404.16L-1089.81 2665.47L-1958 351.485Z" fill="#1F4AB1"/>
<path d="M-1834.62 436.387C-1700.4 425.007 -1273.84 369.427 -1029.32 368.106C-784.802 366.784 -614.99 393.492 -367.51 428.459C-120.03 463.425 170.728 556.954 455.562 577.906C740.395 598.859 1078.3 562.501 1341.49 554.172C1604.68 545.843 1919.19 532.307 2034.73 527.934L2273.05 1163.14L-1088.72 2424.44L-1834.62 436.387Z" fill="#1D429A"/>
<path d="M-1865.39 629.376C-1741.34 647.681 -1393.11 724.034 -1121.1 739.204C-849.087 754.375 -510.57 719.659 -233.321 720.398C43.9281 721.136 284.927 657.431 543.5 665.177C802.073 672.922 1072.98 766.55 1318.12 766.871C1563.25 767.192 1897.36 749.113 2013.2 745.561L2273.05 1438.13L-1088.72 2699.44L-1865.39 629.376Z" fill="#132C69"/>
<path d="M-1742.4 872.173C-1629.17 861.653 -1265.55 808.654 -1063 809.053C-860.448 809.452 -743.078 866.743 -527.087 874.567C-311.096 882.39 -1.72268 855.177 232.945 855.993C467.612 856.81 675.402 842.777 880.917 879.464C1086.43 916.151 1255.28 1053.86 1466.03 1076.12C1676.79 1098.37 2032.2 1023.52 2145.43 1013L2273.05 1353.14L-1088.72 2614.44L-1742.4 872.173Z" fill="#0E255B"/>
<path d="M-1696 965.485C-1560.86 956.568 -1158.4 893.531 -885.156 911.986C-611.912 930.441 -297.667 1058.18 -56.5379 1076.22C184.591 1094.25 301.812 1009.18 561.617 1020.21C821.422 1031.24 1229.05 1123.94 1502.29 1142.4C1775.54 1160.86 2084.61 1132.85 2201.08 1130.94L2273.34 1323.55L-1088.42 2584.86L-1696 965.485Z" fill="#07173E"/>
<path d="M-1650.18 1137.96C-1536.44 1128.81 -1171.28 1079.91 -967.702 1083.05C-764.123 1086.19 -653.926 1124.36 -428.707 1156.78C-203.489 1189.19 139.713 1252.14 383.607 1277.55C627.502 1302.96 825.844 1320.53 1034.66 1309.24C1243.48 1297.94 1432.93 1206.65 1636.51 1209.78C1840.09 1212.92 2152.87 1308.34 2256.14 1328.06L2273.05 1373.14L-1088.72 2634.44L-1650.18 1137.96Z" fill="#07122C"/>
</g>
<path d="M763 11.6765C715.8 3.67645 584.5 25.1765 549 57.6765C585.5 60.1765 567.5 51.6765 603 69.1765C638.5 86.6765 627.5 100.176 661.5 110.176C695.5 120.176 715.5 72.1763 773.5 72.1763C831.5 72.1763 809 133.676 823.5 169.176C847.43 227.765 994.64 269.327 973 162.676C966 128.176 822 21.6765 763 11.6765Z" fill="#B1C8FF" stroke="#6C96F6" stroke-width="19" stroke-linecap="round" stroke-linejoin="round" stroke-dasharray="46 46"/>
<path d="M35 114.746C35 114.746 35 487.246 35 696.746C35 906.246 229.5 1065.75 404 1065.75C578.5 1065.75 773 906.246 773 696.746C773 471.246 773 114.746 773 114.746" stroke="#93B3FF" stroke-width="70" stroke-linecap="round"/>
<defs>
<linearGradient id="paint0_linear_27_103" x1="-522.603" y1="-1157.41" x2="592.168" y2="1813.79" gradientUnits="userSpaceOnUse">
<stop offset="1" stop-color="#020803"/>
</linearGradient>
</defs>
</svg>
