<svg width="103" height="89" viewBox="0 0 103 89" fill="none" xmlns="http://www.w3.org/2000/svg">
<path d="M98.2939 7.13348L92.0868 3.04588C87.6727 0.139069 82.0798 -0.311954 77.257 1.84999L70.5 4.87898L81.5 22.379H93.7249C96.4077 22.379 98.9255 21.0833 100.485 18.9002C103.223 15.0663 102.229 9.72475 98.2939 7.13348Z" fill="#527DE9" fill-opacity="0.26"/>
<path d="M80.6836 21.0811C80.9174 20.9342 81.2261 21.0046 81.3731 21.2384L81.7754 21.879H82.5186C82.7947 21.879 83.0186 22.1028 83.0186 22.379C83.0186 22.6551 82.7947 22.879 82.5186 22.879H81.5C81.3281 22.879 81.1687 22.7902 81.0772 22.6446L80.5264 21.7696C80.3799 21.536 80.4503 21.2281 80.6836 21.0811ZM86.5938 21.879L86.6943 21.8888C86.9223 21.9353 87.0938 22.1373 87.0938 22.379C87.0938 22.6207 86.9223 22.8227 86.6943 22.8692L86.5938 22.879H84.5566C84.2805 22.879 84.0566 22.6551 84.0566 22.379C84.0566 22.1028 84.2805 21.879 84.5566 21.879H86.5938ZM90.669 21.879L90.7695 21.8888C90.9974 21.9354 91.169 22.1374 91.169 22.379C91.169 22.6206 90.9974 22.8226 90.7695 22.8692L90.669 22.879H88.6309C88.3549 22.8788 88.1309 22.655 88.1309 22.379C88.1309 22.1029 88.3549 21.8792 88.6309 21.879H90.669ZM94.752 21.8223C94.9834 21.8418 95.1773 22.0212 95.2061 22.2608C95.2388 22.535 95.0428 22.7838 94.7686 22.8165C94.4243 22.8575 94.0757 22.879 93.7246 22.879H92.7061C92.4299 22.879 92.2061 22.6551 92.2061 22.379C92.2061 22.1029 92.4299 21.879 92.7061 21.879H93.7246C94.036 21.879 94.3452 21.8607 94.6504 21.8243L94.752 21.8223ZM98.0947 20.5411C98.3235 20.3866 98.6345 20.4471 98.7891 20.6759C98.9436 20.9046 98.884 21.2156 98.6553 21.3702L98.4356 21.5128C97.9196 21.8394 97.3705 22.112 96.7979 22.3253C96.5392 22.4214 96.2516 22.29 96.1553 22.0313C96.0589 21.7726 96.1904 21.4842 96.4492 21.3878C97.0293 21.1717 97.5818 20.8875 98.0947 20.5411ZM78.4844 17.5811C78.689 17.4526 78.9507 17.49 79.1113 17.6583L79.1729 17.7384L80.2734 19.4884C80.42 19.722 80.3496 20.0299 80.1162 20.1768C79.8824 20.3238 79.5737 20.2534 79.4268 20.0196L78.3272 18.2696L78.2813 18.1798C78.1993 17.962 78.2797 17.7098 78.4844 17.5811ZM100.234 20.004C100.048 20.208 99.7324 20.223 99.5283 20.0372C99.3243 19.8513 99.3094 19.5353 99.4951 19.3311L100.234 20.004ZM100.629 17.7188C100.758 17.475 101.061 17.3826 101.305 17.5118C101.549 17.6412 101.642 17.9436 101.513 18.1876L101.371 18.4434C101.225 18.6977 101.066 18.947 100.892 19.1905C100.688 19.4762 100.468 19.7477 100.234 20.004L99.8652 19.6671L99.4951 19.3311C99.7021 19.104 99.8971 18.8628 100.078 18.6095C100.284 18.3208 100.468 18.0231 100.629 17.7188ZM76.2842 14.0811C76.4888 13.9525 76.7504 13.99 76.9111 14.1583L76.9736 14.2384L78.0732 15.9884L78.1182 16.0782C78.2002 16.296 78.1206 16.5481 77.916 16.6768C77.6822 16.8238 77.3735 16.7534 77.2266 16.5196L76.127 14.7696L76.082 14.6798C76 14.462 76.0795 14.2098 76.2842 14.0811ZM102.326 15.9776C102.266 16.247 102 16.4168 101.73 16.3575C101.461 16.2979 101.29 16.0313 101.35 15.7618L102.326 15.9776ZM101.997 13.1563C102.238 13.1441 102.449 13.3053 102.507 13.5304L102.521 13.6309L102.532 13.9239C102.544 14.6092 102.476 15.2988 102.326 15.9776L101.838 15.8692L101.35 15.7618C101.483 15.1606 101.543 14.5492 101.532 13.9415L101.523 13.6817L101.528 13.5802C101.563 13.3504 101.756 13.1686 101.997 13.1563ZM74.084 10.5811C74.2886 10.4525 74.5502 10.4901 74.7109 10.6583L74.7734 10.7384L75.8731 12.4884L75.918 12.5782C76.0001 12.796 75.9205 13.0482 75.7158 13.1768C75.482 13.3238 75.1733 13.2534 75.0264 13.0196L73.9268 11.2696L73.8818 11.1798C73.7998 10.962 73.8794 10.7098 74.084 10.5811ZM101.063 9.19735C101.448 9.77649 101.759 10.3956 101.994 11.0391L102.091 11.3165L102.112 11.4151C102.139 11.6463 102.001 11.8719 101.771 11.9473C101.542 12.0227 101.297 11.9229 101.182 11.7208L101.141 11.629L101.056 11.3829C100.847 10.812 100.571 10.2632 100.23 9.75008L100.647 9.47371L101.063 9.19735ZM71.8838 7.08113C72.1176 6.93418 72.4263 7.00457 72.5732 7.23836L73.6729 8.98836C73.8197 9.22214 73.7494 9.52991 73.5156 9.67684C73.311 9.8054 73.0493 9.76797 72.8887 9.59969L72.8272 9.51961L71.7266 7.76961C71.58 7.53597 71.6504 7.22808 71.8838 7.08113ZM100.371 9.0577C100.601 8.90524 100.911 8.96758 101.063 9.19735L100.23 9.75008C100.078 9.52002 100.141 9.2103 100.371 9.0577ZM97.1006 6.34774C97.2335 6.14594 97.4872 6.07191 97.7031 6.15828L97.793 6.20516L98.5693 6.7159C98.8191 6.88041 99.0577 7.05566 99.2852 7.24031L99.5088 7.42879L99.5791 7.50203C99.7205 7.68662 99.717 7.95147 99.5586 8.13387C99.4002 8.31607 99.139 8.3562 98.9365 8.24227L98.8535 8.18367L98.6553 8.01668C98.4534 7.85276 98.2408 7.6972 98.0186 7.55086L97.2432 7.04012L97.1641 6.97664C96.9994 6.81241 96.9677 6.54954 97.1006 6.34774ZM71.1397 4.04403C71.3916 3.93107 71.6878 4.044 71.8008 4.29598C71.9137 4.54794 71.8008 4.84319 71.5488 4.95613L71.2285 5.09871L71.4736 5.48836C71.6201 5.72195 71.5497 6.02987 71.3164 6.17684C71.0826 6.32379 70.7739 6.2534 70.627 6.01961L70.0772 5.14461C70.0003 5.02219 69.9797 4.87285 70.0215 4.73446C70.0635 4.59591 70.1638 4.48215 70.2959 4.42293L71.1397 4.04403ZM93.9971 4.30379C94.13 4.10205 94.3837 4.02799 94.5996 4.11434L94.6895 4.16121L96.2412 5.1827C96.4718 5.33457 96.5357 5.64543 96.3838 5.87606C96.2319 6.10633 95.9219 6.17017 95.6914 6.01863L94.1397 4.99617L94.0606 4.9327C93.8959 4.76845 93.8642 4.50558 93.9971 4.30379ZM73.2383 4.1993C72.9863 4.31221 72.6901 4.19931 72.5772 3.94735C72.4646 3.69556 72.5775 3.40019 72.8291 3.28719L73.2383 4.1993ZM74.5186 2.52938C74.7705 2.41647 75.0667 2.52937 75.1797 2.78133C75.2926 3.03329 75.1797 3.32952 74.9277 3.44246L73.2383 4.1993L73.0342 3.74324L72.8291 3.28719L74.5186 2.52938ZM93.1377 3.13973C93.3681 3.29166 93.4321 3.60157 93.2803 3.83211C93.1284 4.0625 92.8184 4.12629 92.5879 3.97469L93.1377 3.13973ZM91.5088 2.1036C91.7973 2.26868 92.0816 2.44379 92.3613 2.62801L93.1377 3.13973L92.8623 3.55672L92.5879 3.97469L91.8115 3.46395C91.5491 3.29113 91.2823 3.12659 91.0117 2.97176L91.2607 2.53817L91.5088 2.1036ZM90.8262 2.29012C90.9633 2.05049 91.2691 1.96656 91.5088 2.1036L91.0117 2.97176C90.7725 2.83459 90.6894 2.52961 90.8262 2.29012ZM77.9785 1.01278C78.2371 0.915866 78.5251 1.04722 78.6221 1.30574C78.7189 1.56414 78.5883 1.85221 78.3301 1.9493C78.0383 2.05875 77.7486 2.17822 77.4619 2.30672L76.6172 2.68465L76.5205 2.71688C76.2936 2.76738 76.0549 2.6531 75.9561 2.4327C75.8434 2.1808 75.9562 1.88544 76.208 1.77254L77.0527 1.39363C77.3585 1.25659 77.6672 1.12952 77.9785 1.01278ZM87.8193 0.569416C88.3006 0.701865 88.777 0.857217 89.2461 1.03524L89.7129 1.22078L89.8018 1.26863C89.9941 1.39909 90.0749 1.65112 89.9824 1.8741C89.8897 2.09703 89.6539 2.21809 89.4258 2.17391L89.3281 2.14461L88.8906 1.96981C88.5978 1.8587 88.302 1.7573 88.0039 1.66512L87.5547 1.53328L87.46 1.49715C87.2526 1.39175 87.141 1.152 87.2051 0.919025C87.2783 0.652919 87.5532 0.496391 87.8193 0.569416ZM81.8662 0.0899238C82.1406 0.0605098 82.3873 0.258883 82.417 0.533283C82.4464 0.807501 82.2478 1.05421 81.9736 1.08406C81.3536 1.15107 80.7354 1.25621 80.124 1.40145C79.8555 1.4652 79.5864 1.29975 79.5225 1.03133C79.4586 0.762665 79.6249 0.492617 79.8936 0.428791C80.5457 0.273896 81.2049 0.161393 81.8662 0.0899238ZM84.3662 0.0166816C84.8661 0.041279 85.3648 0.0888113 85.8604 0.160236C86.1336 0.199625 86.3235 0.45336 86.2842 0.726643C86.2497 0.965641 86.0513 1.14053 85.8193 1.15438L85.7178 1.15047L85.252 1.0909C84.941 1.05599 84.629 1.03009 84.3164 1.01473L83.8477 0.999104L83.7471 0.987385C83.52 0.936758 83.3522 0.73194 83.3565 0.490314C83.3615 0.214379 83.5893 -0.00480458 83.8652 8.00818e-05L84.3662 0.0166816Z" fill="#527DE9"/>
<path d="M41.9295 10.5037L41.1386 10.0738C35.6892 7.11225 29.1764 6.83812 23.4975 9.3313C16.4647 12.4189 11.8126 19.2514 11.5174 26.9264L9.5 79.379H81V22.379L70 4.87897L67 7.56862C60.1048 13.7505 50.0661 14.9258 41.9295 10.5037Z" fill="#527DE9"/>
<path d="M0 19.379C0 15.7891 2.91015 12.879 6.5 12.879C10.0899 12.879 13 15.7891 13 19.379V75.879H80V19.379C80 15.7891 82.9101 12.879 86.5 12.879C90.0899 12.879 93 15.7891 93 19.379V82.379C93 85.9688 90.0899 88.879 86.5 88.879H6.5C2.91015 88.879 0 85.9688 0 82.379V19.379Z" fill="black"/>
</svg>
